<svg width="22" height="22" viewBox="0 0 22 22" fill="none" xmlns="http://www.w3.org/2000/svg">
<path d="M21.5 11C21.5 16.799 16.799 21.5 11 21.5C5.20101 21.5 0.5 16.799 0.5 11C0.5 5.20101 5.20101 0.5 11 0.5C16.799 0.5 21.5 5.20101 21.5 11Z" fill="#1275B1"/>
<path d="M14.9103 14.2112L15.3767 11.2476H12.4589V9.32524C12.4589 8.51428 12.8657 7.7233 14.1726 7.7233H15.5V5.20024C15.5 5.20024 14.2959 5 13.1452 5C10.7411 5 9.17125 6.4197 9.17125 8.98883V11.2476H6.5V14.2112H9.17125V21.3759C9.70753 21.458 10.2562 21.5 10.8151 21.5C11.374 21.5 11.9226 21.458 12.4589 21.3759V14.2112H14.9103Z" fill="white"/>
</svg>
