<svg width="250" height="120" viewBox="0 0 250 120" fill="none" xmlns="http://www.w3.org/2000/svg">
<path d="M327.414 -6.95852L249.987 22.3717C220.704 33.4656 193.321 57.2366 171.35 90.6344L113.227 178.983" stroke="#FF2A00" stroke-width="1.5" stroke-miterlimit="10" stroke-linecap="round"/>
<path d="M329.597 0.699138L252.169 30.0293C222.887 41.1233 195.504 64.8942 173.533 98.292L115.41 186.64" stroke="#FF2A00" stroke-width="1.5" stroke-miterlimit="10" stroke-linecap="round"/>
<path d="M331.78 7.35719L254.352 36.6874C225.07 47.7813 197.686 71.5523 175.716 104.95L117.592 193.298" stroke="#FF2A00" stroke-width="1.5" stroke-miterlimit="10" stroke-linecap="round"/>
<path d="M333.962 14.015L256.535 43.3452C227.252 54.4391 199.869 78.21 177.898 111.608L119.775 199.956" stroke="#FF2A00" stroke-width="1.5" stroke-miterlimit="10" stroke-linecap="round"/>
<path d="M336.024 20.3031L258.596 49.6333C229.314 60.7273 201.93 84.4982 179.96 117.896L121.834 206.237" stroke="#FF2A00" stroke-width="1.5" stroke-miterlimit="10" stroke-linecap="round"/>
<path d="M338.206 26.961L260.779 56.2912C231.496 67.3851 204.113 91.1561 182.142 124.554L124.017 212.895" stroke="#FF2A00" stroke-width="1.5" stroke-miterlimit="10" stroke-linecap="round"/>
<path d="M340.389 33.6188L262.961 62.949C233.679 74.0429 206.296 97.8139 184.325 131.212L126.199 219.553" stroke="#FF2A00" stroke-width="1.5" stroke-miterlimit="10" stroke-linecap="round"/>
<path d="M342.572 40.2766L265.144 69.6068C235.862 80.7007 208.478 104.472 186.508 137.869L128.382 226.21" stroke="#FF2A00" stroke-width="1.5" stroke-miterlimit="10" stroke-linecap="round"/>
<path d="M344.633 46.5646L267.205 75.8948C237.923 86.9887 210.54 110.76 188.569 144.158L130.443 232.498" stroke="#FF2A00" stroke-width="1.5" stroke-miterlimit="10" stroke-linecap="round"/>
<path d="M346.816 53.2226L269.388 82.5528C240.106 93.6467 212.722 117.418 190.752 150.815L132.626 239.156" stroke="#FF2A00" stroke-width="1.5" stroke-miterlimit="10" stroke-linecap="round"/>
<path d="M348.998 59.8806L271.571 89.2108C242.288 100.305 214.905 124.076 192.934 157.473L134.808 245.814" stroke="#FF2A00" stroke-width="1.5" stroke-miterlimit="10" stroke-linecap="round"/>
<path d="M351.181 66.5383L273.753 95.8685C244.471 106.962 217.088 130.733 195.117 164.131L136.991 252.472" stroke="#FF2A00" stroke-width="1.5" stroke-miterlimit="10" stroke-linecap="round"/>
<path d="M353.242 72.8264L275.815 102.157C246.532 113.251 219.149 137.021 197.178 170.419L139.052 258.76" stroke="#FF2A00" stroke-width="1.5" stroke-miterlimit="10" stroke-linecap="round"/>
<path d="M355.425 79.4842L277.997 108.814C248.715 119.908 221.331 143.679 199.361 177.077L141.235 265.418" stroke="#FF2A00" stroke-width="0.5" stroke-miterlimit="10" stroke-linecap="round"/>
<path d="M357.608 86.1423L280.18 115.472C250.897 126.566 223.514 150.337 201.543 183.735L143.418 272.076" stroke="#FF2A00" stroke-width="0.5" stroke-miterlimit="10" stroke-linecap="round"/>
<path d="M359.79 92.8001L282.362 122.13C253.08 133.224 225.697 156.995 203.726 190.393L145.603 278.741" stroke="#FF2A00" stroke-width="0.5" stroke-miterlimit="10" stroke-linecap="round"/>
<path d="M361.973 99.4581L284.545 128.788C255.263 139.882 227.879 163.653 205.909 197.051L147.785 285.399" stroke="#FF2A00" stroke-width="0.5" stroke-miterlimit="10" stroke-linecap="round"/>
<path d="M364.155 106.116L286.728 135.446C257.445 146.54 230.062 170.311 208.091 203.709L149.968 292.057" stroke="#FF2A00" stroke-width="0.5" stroke-miterlimit="10" stroke-linecap="round"/>
<path d="M366.338 112.774L288.91 142.104C259.628 153.198 232.245 176.969 210.274 210.367L152.151 298.715" stroke="#FF2A00" stroke-width="0.5" stroke-miterlimit="10" stroke-linecap="round"/>
<path d="M368.521 119.432L291.093 148.762C261.811 159.856 234.427 183.627 212.457 217.024L154.333 305.373" stroke="#FF2A00" stroke-width="0.5" stroke-miterlimit="10" stroke-linecap="round"/>
<path d="M370.582 125.72L293.154 155.05C263.872 166.144 236.489 189.915 214.518 223.313L156.395 311.661" stroke="#FF2A00" stroke-width="0.5" stroke-miterlimit="10" stroke-linecap="round"/>
<path d="M372.765 132.377L295.337 161.708C266.055 172.802 238.671 196.572 216.701 229.97L158.577 318.319" stroke="#FF2A00" stroke-width="0.5" stroke-miterlimit="10" stroke-linecap="round"/>
<path d="M374.947 139.035L297.52 168.366C268.237 179.46 240.854 203.23 218.883 236.628L160.76 324.977" stroke="#FF2A00" stroke-width="0.5" stroke-miterlimit="10" stroke-linecap="round"/>
<path d="M377.13 145.693L299.702 175.023C270.42 186.117 243.036 209.888 221.066 243.286L162.942 331.635" stroke="#FF2A00" stroke-width="0.5" stroke-miterlimit="10" stroke-linecap="round"/>
<path d="M379.191 151.981L301.764 181.311C272.481 192.405 245.098 216.176 223.127 249.574L165.004 337.923" stroke="#FF2A00" stroke-width="0.5" stroke-miterlimit="10" stroke-linecap="round"/>
<path d="M381.374 158.639L303.946 187.969C274.664 199.063 247.281 222.834 225.31 256.232L167.187 344.58" stroke="#FF2A00" stroke-width="0.5" stroke-miterlimit="10" stroke-linecap="round"/>
</svg>
